<svg id="layer" xmlns="http://www.w3.org/2000/svg" viewBox="0 0 356.77 280.66"><defs><style>.cls-1,.cls-5{fill:#fff;}.cls-1,.cls-2,.cls-3,.cls-4{fill-rule:evenodd;}.cls-3{fill:#d95800;}.cls-4{fill:#46a5c2;}</style></defs><title>xylograph</title><polygon id="outline" class="cls-1" points="356.77 127.99 333.66 141.33 356.77 154.67 356.77 177.67 178.38 280.66 0 177.67 0 154.67 23.11 141.33 0 127.99 0 102.99 178.38 0 356.77 102.99 356.77 127.99"/><polygon id="_2_side" data-name="2_side" class="cls-2" points="4.97 174.99 4.97 161.99 177.97 261.99 351.98 161.99 351.98 174.99 177.97 274.99 4.97 174.99"/><polygon id="_2_top" data-name="2_top" class="cls-3" points="177.97 230.99 27.58 144.06 5.18 156.99 178.38 256.99 351.59 156.99 329.21 144.07 177.97 230.99"/><polygon id="_1_side" data-name="1_side" class="cls-2" points="4.97 123.99 4.97 110.99 177.97 210.99 351.98 110.99 351.98 123.99 177.97 223.99 4.97 123.99"/><polygon id="_1_top" data-name="1_top" class="cls-4" points="178.38 5.99 351.59 105.99 178.38 205.99 5.18 105.99 178.38 5.99"/><path id="x" class="cls-5" d="M217.75,140,176.66,110.8,138.74,140h-22.8l48.76-37.75L119.89,67.19l22.24,0,35.32,27.52,38.94-27.52h22.69l-51.35,35.22,54,37.55Z"/></svg>